<svg xmlns="http://www.w3.org/2000/svg" width="101.5" height="56.4"><path d="M38.5 10c.2 0 .3 0 .4-.1l5.2 17.4c.6 1.9 3.4 3.4 6.8 3.4s6.2-1.5 6.8-3.4l5.1-17.4h.4a1.834 1.834 0 1 0-.8-.2l-5.9 12.7 1-17.1a1.8 1.8 0 1 0-1.8-1.8A1.831 1.831 0 0 0 57 5.2l-3.9 16.7-2-18.3a1.746 1.746 0 0 0 1.5-1.8 1.8 1.8 0 1 0-3.6 0 1.834 1.834 0 0 0 1.5 1.8L48.6 22 44.8 5.3a1.714 1.714 0 0 0 1.3-1.7 1.8 1.8 0 1 0-1.8 1.8l1 17.1-5.9-12.7a1.8 1.8 0 1 0-2.6-1.6 1.653 1.653 0 0 0 1.7 1.8Zm12.4 15.8c3.1 0 5.6.8 5.6 1.8s-2.5 1.8-5.6 1.8-5.6-.8-5.6-1.8c-.1-1 2.5-1.8 5.6-1.8ZM18.7 54.5l-1.1-3.3a6.2 6.2 0 0 0-1.7-2.9 4.751 4.751 0 0 0-1.9-.9 4.43 4.43 0 0 0-.7-8.8H.1v1.3h2.4v14.6H0v1.3h8.9v-1.3H6.5v-7H9a7.772 7.772 0 0 1 1.6.2 4.328 4.328 0 0 1 1.2.5 5.312 5.312 0 0 1 1.3 1.3 2.186 2.186 0 0 0 .3.5 24.473 24.473 0 0 1 1.7 5.7h5.7v-1.3l-2.1.1Zm-8-8.3H6.5v-6.3h4.2a3.138 3.138 0 0 1 3.2 3.1 3.222 3.222 0 0 1-3.2 3.2ZM31 38a9.2 9.2 0 1 0 9.3 9.2A9.262 9.262 0 0 0 31 38Zm3.9 14.5a5.73 5.73 0 0 1-1.1 1.1 4.141 4.141 0 0 1-2.3.9h-1a4.141 4.141 0 0 1-2.3-.9 5.731 5.731 0 0 1-1.1-1.1 8.785 8.785 0 0 1-1.6-5.3 9.253 9.253 0 0 1 1.4-5.1 4.3 4.3 0 0 1 2.2-2 .1.1 0 0 0 .1-.1c.1-.1.2-.1.4-.1a5.853 5.853 0 0 1 1.3-.2 5.066 5.066 0 0 1 1.3.2c.1 0 .3.1.4.1a.1.1 0 0 1 .1.1 4.73 4.73 0 0 1 2.2 2 9.017 9.017 0 0 1 1.4 5.1 7.569 7.569 0 0 1-1.4 5.3Zm23.9-3.4h-1.3v2.6a2.818 2.818 0 0 1-2.9 2.8h-5.5V39.9h2.5v-1.3h-9v1.3h2.5v14.6h-2.5v1.3h16.2v-6.7Zm19.8-10.4h-17V40h2.5v14.6h-2.5v1.3h17.1v-6.1h-1.3v2a2.818 2.818 0 0 1-2.9 2.8H68v-7.3h2.1a2.112 2.112 0 0 1 2.1 2.1v1h1.2v-7.2h-1.2v.8a1.97 1.97 0 0 1-2.1 2H68v-6.2h6.5a2.951 2.951 0 0 1 2.9 2.8v1.8h1.3v-1.7l-.1-4Zm22.3 15.9c-1.2 0-1.5-.4-2.5-1.5L92.7 46l3.8-4.5c1-1.2 1.3-1.6 2.6-1.6h1v-1.3h-7v1.3h1.6a.645.645 0 0 1 .6.6.367.367 0 0 1-.1.3l-3.3 4-2.8-3.2-.5-.7c-.1-.1-.1-.2-.1-.4a.645.645 0 0 1 .6-.6h1.5v-1.3h-8.7v1.3h.4c1.1.1 1.4.4 2.3 1.4l5 6.3-4.5 5.4c-1 1.2-1.3 1.6-2.6 1.6h-1.1v1.3h7.5v-1.3H87a.645.645 0 0 1-.6-.6c0-.1.1-.3.1-.4l4-4.8 3.3 4.2.5.6c.1.1.1.2.1.4a.645.645 0 0 1-.6.6h-1.6v1.3h9.3v-1.3Z" fill="#fff"/></svg>