<svg xmlns="http://www.w3.org/2000/svg" width="101.5" height="56.4" viewBox="0 0 101.5 56.4"><g transform="translate(-0.9 -0.7)"><path d="M39.4,10.7c.2,0,.3,0,.4-.1L45,28h0c.6,1.9,3.4,3.4,6.8,3.4S58,29.9,58.6,28h0l5.1-17.4h.4a1.834,1.834,0,1,0-.8-.2L57.4,23.1,58.4,6h0a1.8,1.8,0,1,0-1.8-1.8,1.831,1.831,0,0,0,1.3,1.7L54,22.6,52,4.3a1.746,1.746,0,0,0,1.5-1.8,1.8,1.8,0,1,0-3.6,0,1.834,1.834,0,0,0,1.5,1.8L49.5,22.7,45.7,6A1.714,1.714,0,0,0,47,4.3a1.8,1.8,0,1,0-1.8,1.8h0l1,17.1L40.3,10.5a1.8,1.8,0,1,0-2.6-1.6A1.653,1.653,0,0,0,39.4,10.7ZM51.8,26.5c3.1,0,5.6.8,5.6,1.8s-2.5,1.8-5.6,1.8-5.6-.8-5.6-1.8C46.1,27.3,48.7,26.5,51.8,26.5Z" fill="#fff"/><path d="M19.6,55.2l-1.1-3.3A6.2,6.2,0,0,0,16.8,49a4.751,4.751,0,0,0-1.9-.9,4.43,4.43,0,0,0-.7-8.8H1v1.3H3.4V55.2H.9v1.3H9.8V55.2H7.4v-7H9.9a7.772,7.772,0,0,1,1.6.2,4.328,4.328,0,0,1,1.2.5A5.312,5.312,0,0,1,14,50.2a2.186,2.186,0,0,0,.3.5A24.473,24.473,0,0,1,16,56.4h5.7V55.1l-2.1.1Zm-8-8.3H7.4V40.6h4.2a3.138,3.138,0,0,1,3.2,3.1A3.222,3.222,0,0,1,11.6,46.9Z" fill="#fff"/><path d="M31.9,38.7a9.2,9.2,0,1,0,9.3,9.2A9.262,9.262,0,0,0,31.9,38.7Zm3.9,14.5a5.73,5.73,0,0,1-1.1,1.1,4.141,4.141,0,0,1-2.3.9h-1a4.141,4.141,0,0,1-2.3-.9A5.731,5.731,0,0,1,28,53.2a8.785,8.785,0,0,1-1.6-5.3,9.253,9.253,0,0,1,1.4-5.1,4.3,4.3,0,0,1,2.2-2h0a.1.1,0,0,0,.1-.1c.1-.1.2-.1.4-.1a5.853,5.853,0,0,1,1.3-.2,5.066,5.066,0,0,1,1.3.2c.1,0,.3.1.4.1a.1.1,0,0,1,.1.1h0a4.73,4.73,0,0,1,2.2,2,9.017,9.017,0,0,1,1.4,5.1A7.569,7.569,0,0,1,35.8,53.2Z" fill="#fff"/><path d="M59.7,49.8H58.4v2.6a2.818,2.818,0,0,1-2.9,2.8H50V40.6h2.5V39.3h-9v1.3H46V55.2H43.5v1.3H59.7V52.3h0V49.8Z" fill="#fff"/><path d="M79.5,39.4h-17v1.3H65V55.3H62.5v1.3H79.6V50.5H78.3v2h0a2.818,2.818,0,0,1-2.9,2.8H68.9V48H71a2.112,2.112,0,0,1,2.1,2.1h0v.7h0v.3h1.2V48h0V46.9h0v-3H73.1v.8h0a1.97,1.97,0,0,1-2.1,2H68.9V40.5h6.5a2.951,2.951,0,0,1,2.9,2.8h0v1.8h1.3V43.4l-.1-4Z" fill="#fff"/><path d="M101.8,55.3c-1.2,0-1.5-.4-2.5-1.5l-5.7-7.1,3.8-4.5h0c1-1.2,1.3-1.6,2.6-1.6h1V39.3H94v1.3h1.6a.645.645,0,0,1,.6.6.367.367,0,0,1-.1.3l-3.3,4L90,42.3l-.5-.7c-.1-.1-.1-.2-.1-.4a.645.645,0,0,1,.6-.6h1.5V39.3H82.8v1.3h.4c1.1.1,1.4.4,2.3,1.4l5,6.3L86,53.7h0c-1,1.2-1.3,1.6-2.6,1.6H82.3v1.3h7.5V55.3H87.9a.645.645,0,0,1-.6-.6c0-.1.1-.3.1-.4l4-4.8,3.3,4.2.5.6c.1.1.1.2.1.4a.645.645,0,0,1-.6.6H93.1v1.3h9.3V55.3Z" fill="#fff"/></g></svg>